<svg width="30" height="30" viewBox="0 0 30 30" fill="none" xmlns="http://www.w3.org/2000/svg">
<g clip-path="url(#clip0_149_581)">
<path d="M21.25 4.17487C23.1353 5.26343 24.7037 6.82552 25.7998 8.70649C26.8959 10.5875 27.4817 12.7221 27.4993 14.899C27.5169 17.076 26.9656 19.2198 25.9 21.1182C24.8345 23.0167 23.2916 24.6039 21.4241 25.7228C19.5566 26.8416 17.4292 27.4534 15.2526 27.4974C13.076 27.5415 10.9257 27.0163 9.01444 25.9739C7.1032 24.9315 5.49734 23.408 4.35583 21.5543C3.21433 19.7005 2.57676 17.5808 2.50625 15.4049L2.5 14.9999L2.50625 14.5949C2.57625 12.4361 3.20443 10.3323 4.32955 8.48861C5.45466 6.6449 7.03832 5.12418 8.92612 4.07472C10.8139 3.02526 12.9414 2.48286 15.1013 2.50041C17.2611 2.51796 19.3795 3.09486 21.25 4.17487ZM15 13.7499H13.75L13.6038 13.7586C13.2874 13.7962 12.9973 13.9533 12.7928 14.1976C12.5883 14.4419 12.4849 14.7551 12.5035 15.0731C12.5222 15.3912 12.6616 15.6901 12.8933 15.9088C13.125 16.1275 13.4314 16.2495 13.75 16.2499V19.9999L13.7587 20.1461C13.7946 20.4502 13.9407 20.7305 14.1695 20.934C14.3983 21.1374 14.6938 21.2498 15 21.2499H16.25L16.3962 21.2411C16.7003 21.2053 16.9807 21.0591 17.1841 20.8303C17.3876 20.6015 17.5 20.306 17.5 19.9999L17.4913 19.8536C17.4583 19.5746 17.3324 19.3148 17.1337 19.1161C16.9351 18.9175 16.6753 18.7915 16.3962 18.7586L16.25 18.7499V14.9999L16.2413 14.8536C16.2054 14.5496 16.0593 14.2692 15.8305 14.0658C15.6017 13.8623 15.3062 13.7499 15 13.7499ZM15.0125 8.74987L14.8538 8.75862C14.5374 8.79625 14.2473 8.95326 14.0428 9.19758C13.8383 9.44189 13.7349 9.75507 13.7535 10.0731C13.7722 10.3912 13.9116 10.6901 14.1433 10.9088C14.375 11.1275 14.6814 11.2495 15 11.2499L15.1587 11.2411C15.4751 11.2035 15.7652 11.0465 15.9697 10.8022C16.1742 10.5578 16.2776 10.2447 16.259 9.92661C16.2403 9.60856 16.1009 9.30964 15.8692 9.09093C15.6375 8.87221 15.3311 8.75022 15.0125 8.74987Z" fill="#296FE5"/>
</g>
<defs>
<clipPath id="clip0_149_581">
<rect width="30" height="30" fill="white"/>
</clipPath>
</defs>
</svg>
