<svg width="25" height="24" viewBox="0 0 25 24" fill="none" xmlns="http://www.w3.org/2000/svg">
<g clip-path="url(#clip0_198_1885)">
<path d="M3.03906 10C3.03906 10.9193 3.22248 11.8295 3.57885 12.6788C3.93521 13.5281 4.45754 14.2997 5.11602 14.9497C5.77449 15.5998 6.55622 16.1154 7.41656 16.4672C8.2769 16.8189 9.19901 17 10.1302 17C11.0615 17 11.9836 16.8189 12.8439 16.4672C13.7042 16.1154 14.486 15.5998 15.1444 14.9497C15.8029 14.2997 16.3253 13.5281 16.6816 12.6788C17.038 11.8295 17.2214 10.9193 17.2214 10C17.2214 9.08075 17.038 8.1705 16.6816 7.32122C16.3253 6.47194 15.8029 5.70026 15.1444 5.05025C14.486 4.40024 13.7042 3.88463 12.8439 3.53284C11.9836 3.18106 11.0615 3 10.1302 3C9.19901 3 8.2769 3.18106 7.41656 3.53284C6.55622 3.88463 5.77449 4.40024 5.11602 5.05025C4.45754 5.70026 3.93521 6.47194 3.57885 7.32122C3.22248 8.1705 3.03906 9.08075 3.03906 10Z" stroke="#666666" stroke-width="1.5" stroke-linecap="round" stroke-linejoin="round"/>
<path d="M21.2735 21L15.1953 15" stroke="#666666" stroke-width="1.5" stroke-linecap="round" stroke-linejoin="round"/>
</g>
<defs>
<clipPath id="clip0_198_1885">
<rect width="24.3126" height="24" fill="white"/>
</clipPath>
</defs>
</svg>
