<svg width="28" height="28" viewBox="0 0 28 28" fill="none" xmlns="http://www.w3.org/2000/svg">
<g clip-path="url(#clip0_198_4540)">
<path d="M4.6665 8.16699H23.3332" stroke="black" stroke-width="2" stroke-linecap="round" stroke-linejoin="round"/>
<path d="M11.6665 12.833V19.833" stroke="black" stroke-width="2" stroke-linecap="round" stroke-linejoin="round"/>
<path d="M16.3335 12.833V19.833" stroke="black" stroke-width="2" stroke-linecap="round" stroke-linejoin="round"/>
<path d="M5.8335 8.16699L7.00016 22.167C7.00016 22.7858 7.246 23.3793 7.68358 23.8169C8.12117 24.2545 8.71466 24.5003 9.3335 24.5003H18.6668C19.2857 24.5003 19.8792 24.2545 20.3167 23.8169C20.7543 23.3793 21.0002 22.7858 21.0002 22.167L22.1668 8.16699" stroke="black" stroke-width="2" stroke-linecap="round" stroke-linejoin="round"/>
<path d="M10.5 8.16667V4.66667C10.5 4.35725 10.6229 4.0605 10.8417 3.84171C11.0605 3.62292 11.3572 3.5 11.6667 3.5H16.3333C16.6428 3.5 16.9395 3.62292 17.1583 3.84171C17.3771 4.0605 17.5 4.35725 17.5 4.66667V8.16667" stroke="black" stroke-width="2" stroke-linecap="round" stroke-linejoin="round"/>
</g>
<defs>
<clipPath id="clip0_198_4540">
<rect width="28" height="28" fill="white"/>
</clipPath>
</defs>
</svg>
